<?xml version="1.0" encoding="utf-8"?>
<!-- Generator: Adobe Illustrator 19.1.0, SVG Export Plug-In . SVG Version: 6.00 Build 0)  -->
<svg version="1.1" xmlns="http://www.w3.org/2000/svg" xmlns:xlink="http://www.w3.org/1999/xlink" x="0px" y="0px"
	 viewBox="0 0 61 61" style="enable-background:new 0 0 61 61;" xml:space="preserve">
	<circle stroke="#fff" stroke-width="2" fill="none" cx="30" cy="30" r="28"/>
	<path fill="#fff" class="st2" d="M43.9,23.1L43.9,23.1L43.9,23.1 M36.3,20.7c-2.8,0-5,2.3-5,5c0,0.4,0,0.8,0.1,1.2c-4.2-0.2-7.9-2.2-10.4-5.3
		c-0.4,0.7-0.7,1.6-0.7,2.5c0,1.8,0.9,3.3,2.2,4.2c-0.8,0-1.6-0.3-2.3-0.6c0,0,0,0,0,0.1c0,2.4,1.7,4.5,4,4.9
		C23.9,32.9,23.4,33,23,33c-0.3,0-0.6,0-0.9-0.1c0.6,2,2.5,3.5,4.7,3.5c-1.7,1.4-3.9,2.2-6.3,2.2c-0.4,0-0.8,0-1.2-0.1
		c2.2,1.4,4.9,2.3,7.7,2.3c9.3,0,14.4-7.7,14.4-14.4c0-0.2,0-0.4,0-0.7c1-0.7,1.8-1.6,2.5-2.6C43,23.5,42,23.8,41,23.9
		c1-0.6,1.8-1.6,2.2-2.8c-1,0.6-2.1,1-3.2,1.2C39.1,21.4,37.7,20.7,36.3,20.7"/>
</svg>
