<?xml version="1.0" encoding="utf-8"?>
<!-- Generator: Adobe Illustrator 21.0.2, SVG Export Plug-In . SVG Version: 6.00 Build 0)  -->
<svg version="1.1" id="レイヤー_1" xmlns="http://www.w3.org/2000/svg" xmlns:xlink="http://www.w3.org/1999/xlink" x="0px"
	 y="0px" viewBox="0 0 65 31.3" style="enable-background:new 0 0 65 31.3;" xml:space="preserve">
<style type="text/css">
	.st0{display:none;}
	.st1{display:inline;}
	.st2{fill:#231815;}
	.st3{opacity:0.2;}
	.st4{fill:#FFFFFF;}
</style>
<g id="レイヤー_1_1_" class="st0">
	<g class="st1">
		<path class="st2" d="M158.5,20.7h-44.7V-0.1h40.1c2.7,0,4.9-2.2,4.9-5.1s-2.2-5.4-4.9-5.4h-40.1v-20.2c0-0.2,0-0.4-0.1-0.7
			c0,0,0,0,0.1,0h44.8c2.7,0,4.9-2.4,4.9-5.3s-2.2-5.3-4.9-5.3h-34.4h-5.9h-4.5h-2.2c-4.3,0-7.5,3.2-7.5,7.4v3.7v5.9v2.8V11v2.8v6.5
			V24c0,4.2,3,7.2,7.3,7.2h2.2h4.7h5.9h34.3c2.7,0,4.9-2.4,4.9-5.3S161.2,20.7,158.5,20.7"/>
		<path class="st2" d="M73.8-41.5c-3-1-6.4-0.2-8.5,2.1L41.1-13.2L17-39.5c-2.1-2.3-5.5-3.1-8.5-2.1s-5,3.7-5,6.8V24
			c0,3,2,5.7,5,6.7c0.9,0.3,1.8,0.4,2.7,0.4c2.2,0,4.4-0.9,5.8-2.5l52-57.4v46.5L52-0.4L45.4,7l19.9,21.6c1.5,1.6,3.6,2.5,5.8,2.5
			c0.9,0,1.8-0.1,2.7-0.4c3-1,5-3.7,5-6.7v-58.7C78.9-37.8,76.8-40.5,73.8-41.5z M13.3,18.1v-46.8L34.7-5.3L13.3,18.1z"/>
	</g>
</g>
<g id="レイヤー_2" class="st0">
	<g class="st1">
		<path class="st2" d="M152.9,21.2h-44.5v-21h39.9c2.7,0,4.8-2.2,4.8-5.2c0-2.9-2.2-5.5-4.8-5.5h-39.9v-20.4c0-0.2,0-0.4-0.1-0.7
			c0,0,0,0,0.1,0H153c2.7,0,4.8-2.4,4.8-5.3c0-2.9-2.2-5.3-4.8-5.3h-34.2h-5.9h-4.5h-2.2c-4.2,0-7.5,3.3-7.5,7.5v3.8v6v2.9v33.7v2.9
			v6.6v3.4c0,4.3,3,7.3,7.2,7.3h2.2h4.7h5.9h34.2c2.7,0,4.9-2.4,4.9-5.3S155.7,21.2,152.9,21.2"/>
		<path class="st2" d="M74.4-41.7c-3-1.1-6.4-0.2-8.6,2.1L41.5-13L17.2-39.6c-2.1-2.3-5.6-3.1-8.6-2.1c-3,1.1-5.1,3.8-5.1,6.8v59.4
			c0,3,2.1,5.8,5.1,6.8c0.9,0.3,1.8,0.5,2.7,0.5c2.2,0,4.3-0.9,5.8-2.5l52.4-58.1v47l-6-6.4l-8.2-8.7c-1.7-1.8-4.5-1.9-6.4-0.2
			l-0.8,0.8c-1.8,1.7-1.9,4.6-0.2,6.4l12.6,13.4l5.4,5.8c1.5,1.6,3.7,2.5,5.9,2.5c0.9,0,1.8-0.1,2.6-0.5c3-1.1,5-3.8,5-6.8v-59.4
			C79.4-37.9,77.5-40.6,74.4-41.7z M13.4,18.6v-47.4L35.1-5.1L13.4,18.6z"/>
	</g>
</g>
<g class="st3">
	<g>
		<path class="st2" d="M30.1,2.3c-2.5-0.8-5.2,0-6.8,2.1l-6.2,8.1L11,4.4c-1.6-2.1-4.3-3-6.8-2.1C1.7,3.2,0,5.5,0,8.2v17
			c0,2.7,1.7,5,4.2,5.8c0.6,0.2,1.3,0.3,2,0.3c1.9,0,3.7-0.9,4.8-2.4L27.3,7.4c0.4-0.6,1-0.5,1.3-0.4c0.3,0.1,0.8,0.4,0.8,1.2v17
			c0,0.8-0.6,1.1-0.8,1.2c-0.3,0.1-0.9,0.2-1.3-0.4l-3.5-4.7c-0.8-1.1-2.4-1.3-3.4-0.5c-1.1,0.8-1.3,2.3-0.5,3.4l3.5,4.7
			c1.2,1.5,2.9,2.4,4.8,2.4c0.7,0,1.3-0.1,2-0.3c2.6-0.8,4.2-3.1,4.2-5.8v-17C34.3,5.5,32.7,3.2,30.1,2.3z M7.1,25.9
			c-0.4,0.6-1,0.5-1.3,0.4c-0.3-0.1-0.8-0.4-0.8-1.2v-17c0-0.8,0.6-1.1,0.8-1.2c0.1,0,0.2-0.1,0.4-0.1c0.4,0,0.7,0.2,0.9,0.5l7,9.3
			L7.1,25.9z M62.4,26.4H45.9c-0.8,0-1.5-0.6-1.5-1.4v-5.9H61c1.3,0,2.4-1,2.6-2.2c0.1-0.8-0.2-1.5-0.8-2c-0.5-0.4-1.1-0.7-1.8-0.7
			H44.4V8.3c0-0.8,0.7-1.4,1.5-1.4h16.6c1.3,0,2.4-1,2.6-2.2c0.1-0.8-0.2-1.5-0.8-2C63.7,2.2,63.1,2,62.4,2H43.6
			c-2.3,0-4.2,1.8-4.2,4.1v21.1c0,2.3,1.9,4.1,4.2,4.1h18.8c0.7,0,1.3-0.2,1.8-0.7c0.6-0.5,0.8-1.3,0.8-2
			C64.8,27.4,63.7,26.4,62.4,26.4z"/>
	</g>
</g>
<g>
	<g>
		<path class="st4" d="M30.1,0.3c-2.5-0.8-5.2,0-6.8,2.1l-6.2,8.1L11,2.4c-1.6-2.1-4.3-3-6.8-2.1C1.7,1.2,0,3.5,0,6.2v17
			c0,2.7,1.7,5,4.2,5.8c0.6,0.2,1.3,0.3,2,0.3c1.9,0,3.7-0.9,4.8-2.4L27.3,5.4c0.4-0.6,1-0.5,1.3-0.4c0.3,0.1,0.8,0.4,0.8,1.2v17
			c0,0.8-0.6,1.1-0.8,1.2c-0.3,0.1-0.9,0.2-1.3-0.4l-3.5-4.7c-0.8-1.1-2.4-1.3-3.4-0.5c-1.1,0.8-1.3,2.3-0.5,3.4l3.5,4.7
			c1.2,1.5,2.9,2.4,4.8,2.4c0.7,0,1.3-0.1,2-0.3c2.6-0.8,4.2-3.1,4.2-5.8v-17C34.3,3.5,32.7,1.2,30.1,0.3z M7.1,23.9
			c-0.4,0.6-1,0.5-1.3,0.4c-0.3-0.1-0.8-0.4-0.8-1.2v-17c0-0.8,0.6-1.1,0.8-1.2c0.1,0,0.2-0.1,0.4-0.1c0.4,0,0.7,0.2,0.9,0.5l7,9.3
			L7.1,23.9z M62.4,24.4H45.9c-0.8,0-1.5-0.6-1.5-1.4v-5.9H61c1.3,0,2.4-1,2.6-2.2c0.1-0.8-0.2-1.5-0.8-2c-0.5-0.4-1.1-0.7-1.8-0.7
			H44.4V6.3c0-0.8,0.7-1.4,1.5-1.4h16.6c1.3,0,2.4-1,2.6-2.2c0.1-0.8-0.2-1.5-0.8-2C63.7,0.2,63.1,0,62.4,0H43.6
			c-2.3,0-4.2,1.8-4.2,4.1v21.1c0,2.3,1.9,4.1,4.2,4.1h18.8c0.7,0,1.3-0.2,1.8-0.7c0.6-0.5,0.8-1.3,0.8-2
			C64.8,25.4,63.7,24.4,62.4,24.4z"/>
	</g>
</g>
</svg>
